<?xml version="1.0" encoding="UTF-8" standalone="no"?>
<!DOCTYPE svg PUBLIC "-//W3C//DTD SVG 1.1//EN"
 "http://www.w3.org/Graphics/SVG/1.1/DTD/svg11.dtd">
<!-- Generated by graphviz version 2.38.0 (20140413.2041)
 -->
<!-- Title: classes Pages: 1 -->
<svg width="1309pt" height="580pt"
 viewBox="0.00 0.00 1308.50 580.00" xmlns="http://www.w3.org/2000/svg" xmlns:xlink="http://www.w3.org/1999/xlink">
<g id="graph0" class="graph" transform="scale(1 1) rotate(0) translate(4 576)">
<title>classes</title>
<polygon fill="white" stroke="none" points="-4,4 -4,-576 1304.5,-576 1304.5,4 -4,4"/>
<!-- C4 -->
<g id="node1" class="node"><title>C4</title>
<polygon fill="#ffe86d" stroke="black" points="322.5,-400.5 322.5,-499.5 461.5,-499.5 461.5,-400.5 322.5,-400.5"/>
<text text-anchor="start" x="383.5" y="-489.6" font-family="Bitstream Vera Sans" font-size="8.00">Loan</text>
<text text-anchor="start" x="326" y="-477.6" font-family="Bitstream Vera Sans" font-size="8.00">&#45;user : User</text>
<text text-anchor="start" x="326" y="-465.6" font-family="Bitstream Vera Sans" font-size="8.00">&#45;document : Document</text>
<text text-anchor="start" x="326" y="-453.6" font-family="Bitstream Vera Sans" font-size="8.00">+Loan(User,Document)</text>
<text text-anchor="start" x="326" y="-441.6" font-family="Bitstream Vera Sans" font-size="8.00">+equals(java.lang.Object) : boolean</text>
<text text-anchor="start" x="326" y="-429.6" font-family="Bitstream Vera Sans" font-size="8.00">+print() : void</text>
<text text-anchor="start" x="326" y="-417.6" font-family="Bitstream Vera Sans" font-size="8.00">+getDocument() : Document</text>
<text text-anchor="start" x="326" y="-405.6" font-family="Bitstream Vera Sans" font-size="8.00">+getUser() : User</text>
<polygon fill="black" stroke="black" points="324,-486 324,-486 462,-486 462,-486 324,-486"/>
<polygon fill="black" stroke="black" points="324,-462 324,-462 462,-462 462,-462 324,-462"/>
</g>
<!-- C3 -->
<g id="node2" class="node"><title>C3</title>
<polygon fill="#ffe86d" stroke="black" points="165,-36.5 165,-255.5 379,-255.5 379,-36.5 165,-36.5"/>
<text text-anchor="start" x="263.5" y="-245.6" font-family="Bitstream Vera Sans" font-size="8.00">User</text>
<text text-anchor="start" x="168" y="-233.6" font-family="Bitstream Vera Sans" font-size="8.00">&#45;fullName : String</text>
<text text-anchor="start" x="168" y="-221.6" font-family="Bitstream Vera Sans" font-size="8.00">&#45;address : String</text>
<text text-anchor="start" x="168" y="-209.6" font-family="Bitstream Vera Sans" font-size="8.00">&#45;phoneNumber : String</text>
<text text-anchor="start" x="168" y="-198.6" font-family="Bitstream Vera Sans" text-decoration="underline" font-size="8.00">&#45;nextUserCodeAvailable</text>
<text text-anchor="start" x="256" y="-198.6" font-family="Bitstream Vera Sans" font-size="8.00"> : int</text>
<text text-anchor="start" x="168" y="-185.6" font-family="Bitstream Vera Sans" font-size="8.00">&#45;userCode : int</text>
<text text-anchor="start" x="168" y="-173.6" font-family="Bitstream Vera Sans" font-size="8.00">&#45;loans : Collection</text>
<text text-anchor="start" x="168" y="-161.6" font-family="Bitstream Vera Sans" font-size="8.00">+removeLoan(Loan) : void</text>
<text text-anchor="start" x="168" y="-149.6" font-family="Bitstream Vera Sans" font-size="8.00">+authorizedUser() : boolean</text>
<text text-anchor="start" x="168" y="-137.6" font-family="Bitstream Vera Sans" font-size="8.00">+equals(java.lang.Object) : boolean</text>
<text text-anchor="start" x="168" y="-125.6" font-family="Bitstream Vera Sans" font-size="8.00">+User(java.lang.String,java.lang.String,java.lang.String)</text>
<text text-anchor="start" x="168" y="-113.6" font-family="Bitstream Vera Sans" font-size="8.00">+printInfo() : void</text>
<text text-anchor="start" x="168" y="-101.6" font-family="Bitstream Vera Sans" font-size="8.00">+getPhone() : String</text>
<text text-anchor="start" x="168" y="-89.6" font-family="Bitstream Vera Sans" font-size="8.00">+getAddress() : String</text>
<text text-anchor="start" x="168" y="-77.6" font-family="Bitstream Vera Sans" font-size="8.00">+getName() : String</text>
<text text-anchor="start" x="168" y="-65.6" font-family="Bitstream Vera Sans" font-size="8.00">+addLoan(Loan) : void</text>
<text text-anchor="start" x="168" y="-53.6" font-family="Bitstream Vera Sans" font-size="8.00">+numberOfLoans() : int</text>
<text text-anchor="start" x="168" y="-41.6" font-family="Bitstream Vera Sans" font-size="8.00">+getCode() : int</text>
<polygon fill="black" stroke="black" points="166,-242 166,-242 379,-242 379,-242 166,-242"/>
<polygon fill="black" stroke="black" points="166,-170 166,-170 379,-170 379,-170 166,-170"/>
</g>
<!-- C4&#45;&gt;C3 -->
<g id="edge1" class="edge"><title>C4&#45;&gt;C3</title>
<path fill="none" stroke="black" d="M372.72,-400.478C358.186,-363.901 337.616,-312.133 318.851,-264.908"/>
<polygon fill="black" stroke="black" points="322.069,-263.53 315.124,-255.529 315.564,-266.115 322.069,-263.53"/>
</g>
<!-- C7 -->
<g id="node5" class="node"><title>C7</title>
<polygon fill="#ffe86d" stroke="black" points="538.5,-0.5 538.5,-291.5 677.5,-291.5 677.5,-0.5 538.5,-0.5"/>
<text text-anchor="start" x="590" y="-281.6" font-family="Bitstream Vera Sans" font-size="8.00">Document</text>
<text text-anchor="start" x="542" y="-269.6" font-family="Bitstream Vera Sans" font-size="8.00">&#45;title : String</text>
<text text-anchor="start" x="542" y="-257.6" font-family="Bitstream Vera Sans" font-size="8.00">&#45;loan : Loan</text>
<text text-anchor="start" x="542" y="-245.6" font-family="Bitstream Vera Sans" font-size="8.00">&#45;authors : String</text>
<text text-anchor="start" x="542" y="-233.6" font-family="Bitstream Vera Sans" font-size="8.00">&#45;ISBNCode : String</text>
<text text-anchor="start" x="542" y="-222.6" font-family="Bitstream Vera Sans" text-decoration="underline" font-size="8.00">&#45;nextDocumentCodeAvailable</text>
<text text-anchor="start" x="649" y="-222.6" font-family="Bitstream Vera Sans" font-size="8.00"> : int</text>
<text text-anchor="start" x="542" y="-209.6" font-family="Bitstream Vera Sans" font-size="8.00">&#45;documentCode : int</text>
<text text-anchor="start" x="542" y="-197.6" font-family="Bitstream Vera Sans" font-size="8.00">#printHeader() : void</text>
<text text-anchor="start" x="542" y="-185.6" font-family="Bitstream Vera Sans" font-size="8.00">+printInfo() : void</text>
<text text-anchor="start" x="542" y="-173.6" font-family="Bitstream Vera Sans" font-size="8.00">+getAuthors() : String</text>
<text text-anchor="start" x="542" y="-161.6" font-family="Bitstream Vera Sans" font-size="8.00">+removeLoan() : void</text>
<text text-anchor="start" x="542" y="-149.6" font-family="Bitstream Vera Sans" font-size="8.00">+isAvailable() : boolean</text>
<text text-anchor="start" x="542" y="-137.6" font-family="Bitstream Vera Sans" font-size="8.00">+addLoan(Loan) : void</text>
<text text-anchor="start" x="542" y="-125.6" font-family="Bitstream Vera Sans" font-size="8.00">+getCode() : int</text>
<text text-anchor="start" x="542" y="-113.6" font-family="Bitstream Vera Sans" font-size="8.00">+isOut() : boolean</text>
<text text-anchor="start" x="542" y="-101.6" font-family="Bitstream Vera Sans" font-size="8.00">#printAuthors() : void</text>
<text text-anchor="start" x="542" y="-89.6" font-family="Bitstream Vera Sans" font-size="8.00">+Document(java.lang.String)</text>
<text text-anchor="start" x="542" y="-77.6" font-family="Bitstream Vera Sans" font-size="8.00">#printAvailability() : void</text>
<text text-anchor="start" x="542" y="-65.6" font-family="Bitstream Vera Sans" font-size="8.00">+authorizedLoan(User) : boolean</text>
<text text-anchor="start" x="542" y="-53.6" font-family="Bitstream Vera Sans" font-size="8.00">#printGeneralInfo() : void</text>
<text text-anchor="start" x="542" y="-41.6" font-family="Bitstream Vera Sans" font-size="8.00">+equals(java.lang.Object) : boolean</text>
<text text-anchor="start" x="542" y="-29.6" font-family="Bitstream Vera Sans" font-size="8.00">+getBorrower() : User</text>
<text text-anchor="start" x="542" y="-17.6" font-family="Bitstream Vera Sans" font-size="8.00">+getISBN() : String</text>
<text text-anchor="start" x="542" y="-5.6" font-family="Bitstream Vera Sans" font-size="8.00">+getTitle() : String</text>
<polygon fill="black" stroke="black" points="540,-278 540,-278 678,-278 678,-278 540,-278"/>
<polygon fill="black" stroke="black" points="540,-206 540,-206 678,-206 678,-206 540,-206"/>
</g>
<!-- C4&#45;&gt;C7 -->
<g id="edge3" class="edge"><title>C4&#45;&gt;C7</title>
<path fill="none" stroke="black" d="M414.38,-400.496C427.923,-378.176 445.47,-351.493 462,-328 483.973,-296.771 508.939,-263.254 531.971,-233.653"/>
<polygon fill="black" stroke="black" points="535.011,-235.448 538.412,-225.414 529.496,-231.137 535.011,-235.448"/>
</g>
<!-- C10 -->
<g id="node3" class="node"><title>C10</title>
<polygon fill="#ffe86d" stroke="black" points="1133,-328.5 1133,-571.5 1275,-571.5 1275,-328.5 1133,-328.5"/>
<text text-anchor="start" x="1195.5" y="-561.6" font-family="Bitstream Vera Sans" font-size="8.00">Main</text>
<text text-anchor="start" x="1136" y="-550.6" font-family="Bitstream Vera Sans" text-decoration="underline" font-size="8.00">&#45;lib</text>
<text text-anchor="start" x="1147" y="-550.6" font-family="Bitstream Vera Sans" font-size="8.00"> : Library</text>
<text text-anchor="start" x="1136" y="-538.6" font-family="Bitstream Vera Sans" text-decoration="underline" font-size="8.00">+searchUser(java.lang.String)</text>
<text text-anchor="start" x="1136" y="-526.6" font-family="Bitstream Vera Sans" text-decoration="underline" font-size="8.00">+borrowDoc(java.lang.String)</text>
<text text-anchor="start" x="1136" y="-514.6" font-family="Bitstream Vera Sans" text-decoration="underline" font-size="8.00">+addJournal(java.lang.String)</text>
<text text-anchor="start" x="1136" y="-502.6" font-family="Bitstream Vera Sans" text-decoration="underline" font-size="8.00">+main(java.lang.String[])</text>
<text text-anchor="start" x="1136" y="-490.6" font-family="Bitstream Vera Sans" text-decoration="underline" font-size="8.00">+addintUser(java.lang.String)</text>
<text text-anchor="start" x="1136" y="-478.6" font-family="Bitstream Vera Sans" text-decoration="underline" font-size="8.00">+returnDoc(java.lang.String)</text>
<text text-anchor="start" x="1136" y="-466.6" font-family="Bitstream Vera Sans" text-decoration="underline" font-size="8.00">+addBook(java.lang.String)</text>
<text text-anchor="start" x="1136" y="-454.6" font-family="Bitstream Vera Sans" text-decoration="underline" font-size="8.00">+addUser(java.lang.String)</text>
<text text-anchor="start" x="1136" y="-442.6" font-family="Bitstream Vera Sans" text-decoration="underline" font-size="8.00">+searchDoc(java.lang.String)</text>
<text text-anchor="start" x="1136" y="-430.6" font-family="Bitstream Vera Sans" text-decoration="underline" font-size="8.00">+dispatchCommand(java.lang.String)</text>
<text text-anchor="start" x="1136" y="-418.6" font-family="Bitstream Vera Sans" text-decoration="underline" font-size="8.00">+getArgs(java.lang.String)</text>
<text text-anchor="start" x="1136" y="-406.6" font-family="Bitstream Vera Sans" text-decoration="underline" font-size="8.00">+rmUser(java.lang.String)</text>
<text text-anchor="start" x="1136" y="-394.6" font-family="Bitstream Vera Sans" text-decoration="underline" font-size="8.00">+addReport(java.lang.String)</text>
<text text-anchor="start" x="1136" y="-382.6" font-family="Bitstream Vera Sans" text-decoration="underline" font-size="8.00">+printUser(java.lang.String)</text>
<text text-anchor="start" x="1136" y="-370.6" font-family="Bitstream Vera Sans" text-decoration="underline" font-size="8.00">+rmDoc(java.lang.String)</text>
<text text-anchor="start" x="1136" y="-358.6" font-family="Bitstream Vera Sans" text-decoration="underline" font-size="8.00">+printHeader()</text>
<text text-anchor="start" x="1136" y="-346.6" font-family="Bitstream Vera Sans" text-decoration="underline" font-size="8.00">+printDoc(java.lang.String)</text>
<text text-anchor="start" x="1136" y="-334.6" font-family="Bitstream Vera Sans" text-decoration="underline" font-size="8.00">+isHolding(java.lang.String)</text>
<polygon fill="black" stroke="black" points="1134,-558 1134,-558 1275,-558 1275,-558 1134,-558"/>
<polygon fill="black" stroke="black" points="1134,-546 1134,-546 1275,-546 1275,-546 1134,-546"/>
</g>
<!-- C8 -->
<g id="node4" class="node"><title>C8</title>
<polygon fill="#ffe86d" stroke="black" points="1107.5,-6.5 1107.5,-285.5 1300.5,-285.5 1300.5,-6.5 1107.5,-6.5"/>
<text text-anchor="start" x="1192" y="-275.6" font-family="Bitstream Vera Sans" font-size="8.00">Library</text>
<text text-anchor="start" x="1111" y="-263.6" font-family="Bitstream Vera Sans" font-size="8.00">&#45;MAX_NUMBER_OF_LOANS : int</text>
<text text-anchor="start" x="1111" y="-251.6" font-family="Bitstream Vera Sans" font-size="8.00">&#45;documents : Map</text>
<text text-anchor="start" x="1111" y="-239.6" font-family="Bitstream Vera Sans" font-size="8.00">&#45;loans : Collection</text>
<text text-anchor="start" x="1111" y="-227.6" font-family="Bitstream Vera Sans" font-size="8.00">&#45;users : Map</text>
<text text-anchor="start" x="1111" y="-215.6" font-family="Bitstream Vera Sans" font-size="8.00">+searchDocumentByTitle(java.lang.String) : List</text>
<text text-anchor="start" x="1111" y="-203.6" font-family="Bitstream Vera Sans" font-size="8.00">+removeDocument(int) : boolean</text>
<text text-anchor="start" x="1111" y="-191.6" font-family="Bitstream Vera Sans" font-size="8.00">+borrowDocument(User,Document) : boolean</text>
<text text-anchor="start" x="1111" y="-179.6" font-family="Bitstream Vera Sans" font-size="8.00">+getUser(int) : User</text>
<text text-anchor="start" x="1111" y="-167.6" font-family="Bitstream Vera Sans" font-size="8.00">+searchDocumentByAuthors(java.lang.String) : List</text>
<text text-anchor="start" x="1111" y="-155.6" font-family="Bitstream Vera Sans" font-size="8.00">&#45;removeLoan(Loan) : void</text>
<text text-anchor="start" x="1111" y="-143.6" font-family="Bitstream Vera Sans" font-size="8.00">+printAllLoans() : void</text>
<text text-anchor="start" x="1111" y="-131.6" font-family="Bitstream Vera Sans" font-size="8.00">+searchDocumentByISBN(java.lang.String) : int</text>
<text text-anchor="start" x="1111" y="-119.6" font-family="Bitstream Vera Sans" font-size="8.00">+removeUser(int) : boolean</text>
<text text-anchor="start" x="1111" y="-107.6" font-family="Bitstream Vera Sans" font-size="8.00">+searchUser(java.lang.String) : List</text>
<text text-anchor="start" x="1111" y="-95.6" font-family="Bitstream Vera Sans" font-size="8.00">+printDocumentInfo(Document) : void</text>
<text text-anchor="start" x="1111" y="-83.6" font-family="Bitstream Vera Sans" font-size="8.00">+printUserInfo(User) : void</text>
<text text-anchor="start" x="1111" y="-71.6" font-family="Bitstream Vera Sans" font-size="8.00">+isHolding(User,Document) : boolean</text>
<text text-anchor="start" x="1111" y="-59.6" font-family="Bitstream Vera Sans" font-size="8.00">+addDocument(Document) : boolean</text>
<text text-anchor="start" x="1111" y="-47.6" font-family="Bitstream Vera Sans" font-size="8.00">+addUser(User) : boolean</text>
<text text-anchor="start" x="1111" y="-35.6" font-family="Bitstream Vera Sans" font-size="8.00">&#45;addLoan(Loan) : void</text>
<text text-anchor="start" x="1111" y="-23.6" font-family="Bitstream Vera Sans" font-size="8.00">+getDocument(int) : Document</text>
<text text-anchor="start" x="1111" y="-11.6" font-family="Bitstream Vera Sans" font-size="8.00">+returnDocument(Document) : boolean</text>
<polygon fill="black" stroke="black" points="1109,-272 1109,-272 1301,-272 1301,-272 1109,-272"/>
<polygon fill="black" stroke="black" points="1109,-224 1109,-224 1301,-224 1301,-224 1109,-224"/>
</g>
<!-- C10&#45;&gt;C8 -->
<g id="edge2" class="edge"><title>C10&#45;&gt;C8</title>
<path fill="none" stroke="black" d="M1204,-328.34C1204,-317.585 1204,-306.616 1204,-295.663"/>
<polygon fill="black" stroke="black" points="1207.5,-295.616 1204,-285.616 1200.5,-295.616 1207.5,-295.616"/>
</g>
<!-- C7&#45;&gt;C4 -->
<g id="edge4" class="edge"><title>C7&#45;&gt;C4</title>
<path fill="none" stroke="black" d="M538.288,-248.031C519.083,-273.844 498.483,-301.732 480,-328 465.472,-348.648 450.157,-371.761 436.374,-392.209"/>
<polygon fill="black" stroke="black" points="433.472,-390.252 430.77,-400.496 439.271,-394.173 433.472,-390.252"/>
</g>
<!-- C2 -->
<g id="node6" class="node"><title>C2</title>
<polygon fill="#ffe86d" stroke="black" points="899.5,-430.5 899.5,-469.5 1114.5,-469.5 1114.5,-430.5 899.5,-430.5"/>
<text text-anchor="start" x="998.5" y="-459.6" font-family="Bitstream Vera Sans" font-size="8.00">Book</text>
<text text-anchor="start" x="903" y="-447.6" font-family="Bitstream Vera Sans" font-size="8.00">+Book(java.lang.String,java.lang.String,java.lang.String)</text>
<text text-anchor="start" x="903" y="-435.6" font-family="Bitstream Vera Sans" font-size="8.00">+printInfo() : void</text>
<polygon fill="black" stroke="black" points="901,-456 901,-456 1115,-456 1115,-456 901,-456"/>
</g>
<!-- C2&#45;&gt;C7 -->
<g id="edge7" class="edge"><title>C2&#45;&gt;C7</title>
<path fill="none" stroke="black" d="M991.519,-430.485C970.165,-405.563 929.782,-360.594 890,-328 825.582,-275.221 745.029,-224.872 686.529,-190.739"/>
<polygon fill="none" stroke="black" points="688.105,-187.606 677.699,-185.612 684.59,-193.66 688.105,-187.606"/>
</g>
<!-- C6 -->
<g id="node7" class="node"><title>C6</title>
<polygon fill="#ffe86d" stroke="black" points="970.5,-128 970.5,-164 1043.5,-164 1043.5,-128 970.5,-128"/>
<text text-anchor="start" x="979" y="-154.6" font-family="Bitstream Vera Sans" font-size="8.00">&lt;&lt;interface&gt;&gt;</text>
<text text-anchor="start" x="997" y="-145.6" font-family="Bitstream Vera Sans" font-size="8.00">IBook</text>
<text text-anchor="start" x="974" y="-133.6" font-family="Bitstream Vera Sans" font-size="8.00">+printInfo() : void</text>
<polygon fill="black" stroke="black" points="972,-142 972,-142 1044,-142 1044,-142 972,-142"/>
</g>
<!-- C2&#45;&gt;C6 -->
<g id="edge5" class="edge"><title>C2&#45;&gt;C6</title>
<path fill="none" stroke="black" stroke-dasharray="5,2" d="M1007,-430.109C1007,-378.565 1007,-235.321 1007,-174.683"/>
<polygon fill="black" stroke="black" points="1007,-164.363 1011.5,-174.363 1007,-169.363 1007,-174.363 1007,-174.363 1007,-174.363 1007,-169.363 1002.5,-174.363 1007,-164.363 1007,-164.363"/>
</g>
<!-- C1 -->
<g id="node8" class="node"><title>C1</title>
<polygon fill="#ffe86d" stroke="black" points="0,-424.5 0,-475.5 304,-475.5 304,-424.5 0,-424.5"/>
<text text-anchor="start" x="129" y="-465.6" font-family="Bitstream Vera Sans" font-size="8.00">InternalUser</text>
<text text-anchor="start" x="3" y="-453.6" font-family="Bitstream Vera Sans" font-size="8.00">&#45;internalld : String</text>
<text text-anchor="start" x="3" y="-441.6" font-family="Bitstream Vera Sans" font-size="8.00">+authorizedUser() : boolean</text>
<text text-anchor="start" x="3" y="-429.6" font-family="Bitstream Vera Sans" font-size="8.00">+InternalUser(java.lang.String,java.lang.String,java.lang.String,java.lang.String)</text>
<polygon fill="black" stroke="black" points="1,-462 1,-462 304,-462 304,-462 1,-462"/>
<polygon fill="black" stroke="black" points="1,-450 1,-450 304,-450 304,-450 1,-450"/>
</g>
<!-- C1&#45;&gt;C3 -->
<g id="edge6" class="edge"><title>C1&#45;&gt;C3</title>
<path fill="none" stroke="black" d="M161.82,-424.286C175.635,-389.519 201.731,-323.843 225.06,-265.133"/>
<polygon fill="none" stroke="black" points="228.338,-266.361 228.778,-255.776 221.833,-263.776 228.338,-266.361"/>
</g>
<!-- C5 -->
<g id="node9" class="node"><title>C5</title>
<polygon fill="#ffe86d" stroke="black" points="480,-406.5 480,-493.5 736,-493.5 736,-406.5 480,-406.5"/>
<text text-anchor="start" x="579" y="-483.6" font-family="Bitstream Vera Sans" font-size="8.00">TechnicalReport</text>
<text text-anchor="start" x="483" y="-471.6" font-family="Bitstream Vera Sans" font-size="8.00">&#45;refNo : String</text>
<text text-anchor="start" x="483" y="-459.6" font-family="Bitstream Vera Sans" font-size="8.00">+TechnicalReport(java.lang.String,java.lang.String,java.lang.String)</text>
<text text-anchor="start" x="483" y="-447.6" font-family="Bitstream Vera Sans" font-size="8.00">+getRefNo() : String</text>
<text text-anchor="start" x="483" y="-435.6" font-family="Bitstream Vera Sans" font-size="8.00">+authorizedLoan(User) : boolean</text>
<text text-anchor="start" x="483" y="-423.6" font-family="Bitstream Vera Sans" font-size="8.00">+printInfo() : void</text>
<text text-anchor="start" x="483" y="-411.6" font-family="Bitstream Vera Sans" font-size="8.00">#printRefNo() : void</text>
<polygon fill="black" stroke="black" points="481,-480 481,-480 736,-480 736,-480 481,-480"/>
<polygon fill="black" stroke="black" points="481,-468 481,-468 736,-468 736,-468 481,-468"/>
</g>
<!-- C5&#45;&gt;C7 -->
<g id="edge8" class="edge"><title>C5&#45;&gt;C7</title>
<path fill="none" stroke="black" d="M608,-406.371C608,-378.61 608,-340.52 608,-302.077"/>
<polygon fill="none" stroke="black" points="611.5,-301.77 608,-291.77 604.5,-301.77 611.5,-301.77"/>
</g>
<!-- C9 -->
<g id="node10" class="node"><title>C9</title>
<polygon fill="#ffe86d" stroke="black" points="754.5,-430.5 754.5,-469.5 881.5,-469.5 881.5,-430.5 754.5,-430.5"/>
<text text-anchor="start" x="805" y="-459.6" font-family="Bitstream Vera Sans" font-size="8.00">Journal</text>
<text text-anchor="start" x="758" y="-447.6" font-family="Bitstream Vera Sans" font-size="8.00">+authorizedLoan(User) : boolean</text>
<text text-anchor="start" x="758" y="-435.6" font-family="Bitstream Vera Sans" font-size="8.00">+Journal(java.lang.String)</text>
<polygon fill="black" stroke="black" points="756,-456 756,-456 882,-456 882,-456 756,-456"/>
</g>
<!-- C9&#45;&gt;C7 -->
<g id="edge9" class="edge"><title>C9&#45;&gt;C7</title>
<path fill="none" stroke="black" d="M807.461,-430.172C793.773,-406.045 768.803,-363.141 745,-328 726.072,-300.056 704.476,-270.553 684.115,-243.66"/>
<polygon fill="none" stroke="black" points="686.677,-241.247 677.84,-235.402 681.104,-245.482 686.677,-241.247"/>
</g>
</g>
</svg>
